<?xml version="1.0" encoding="utf-8"?>
<!-- Generator: Adobe Illustrator 27.0.1, SVG Export Plug-In . SVG Version: 6.00 Build 0)  -->
<svg version="1.1" id="Layer_1" xmlns="http://www.w3.org/2000/svg" xmlns:xlink="http://www.w3.org/1999/xlink" x="0px" y="0px"
	 viewBox="0 0 34 34" style="enable-background:new 0 0 34 34;" xml:space="preserve">
<style type="text/css">
	.st0{fill:#812DD0;}
</style>
<g>
	<path class="st0" d="M18.4,9.1c-0.1,0.1-0.2,0.1-0.3,0c-0.7-0.7-1-0.8-1.8-0.3c-0.1,0.1-0.2,0-0.3-0.1c-0.1-0.1-0.1-0.2,0-0.3
		c0.7-0.7,0.7-0.9,0.3-1.8c-0.1-0.1,0-0.2,0.1-0.3c0.1-0.1,0.2-0.1,0.3,0c0.7,0.7,0.9,0.8,1.8,0.3c0.1-0.1,0.2,0,0.3,0.1
		c0.1,0.1,0.1,0.2,0,0.3c-0.7,0.7-0.7,0.9-0.3,1.8C18.5,8.9,18.5,9,18.4,9.1z"/>
</g>
<g>
	<path class="st0" d="M7.4,16.6c2.2,0,3.9-1.8,3.9-4c0-2.2-1.8-4-3.9-4s-3.9,1.8-3.9,4S5.3,16.6,7.4,16.6z M7.4,10
		c1.4,0,2.5,1.2,2.5,2.6s-1.1,2.6-2.5,2.6S4.9,14,4.9,12.6S6,10,7.4,10z"/>
	<path class="st0" d="M1.1,29.5c0.2,0,0.3-0.1,0.5-0.2l11.6-10.4l7.3,7.4c0.3,0.3,0.7,0.3,1,0s0.3-0.7,0-1L18,21.9l6.5-7.3l8,7.4
		c0.3,0.3,0.7,0.2,1,0c0.3-0.3,0.2-0.8,0-1l-8.5-7.9c-0.1-0.1-0.3-0.2-0.5-0.2c-0.2,0-0.4,0.1-0.5,0.2L17,20.8l-3.4-3.4
		c-0.3-0.3-0.7-0.3-1,0L0.6,28.2c-0.3,0.3-0.3,0.7-0.1,1C0.7,29.4,0.9,29.5,1.1,29.5z"/>
</g>
</svg>
