<?xml version="1.0" encoding="utf-8"?>
<!-- Generator: Adobe Illustrator 27.0.1, SVG Export Plug-In . SVG Version: 6.00 Build 0)  -->
<svg version="1.1" id="Layer_1" xmlns="http://www.w3.org/2000/svg" xmlns:xlink="http://www.w3.org/1999/xlink" x="0px" y="0px"
	 viewBox="0 0 168 27" style="enable-background:new 0 0 168 27;" xml:space="preserve">
<style type="text/css">
	.st0{fill:#812DD0;}
	.st1{fill:#502383;}
</style>
<g>
	<path class="st0" d="M20.7,5.3c-0.1,0.1-0.2,0.1-0.3,0c-0.7-0.7-1-0.8-1.8-0.3c-0.1,0.1-0.2,0-0.3-0.1c-0.1-0.1-0.1-0.2,0-0.3
		c0.7-0.7,0.7-0.9,0.3-1.8c-0.1-0.1,0-0.2,0.1-0.3c0.1-0.1,0.2-0.1,0.3,0c0.7,0.7,0.9,0.8,1.8,0.3c0.1-0.1,0.2,0,0.3,0.1
		c0.1,0.1,0.1,0.2,0,0.3C20.3,3.9,20.3,4,20.8,5C20.8,5.1,20.8,5.2,20.7,5.3z"/>
</g>
<g>
	<path class="st0" d="M9.8,12.8c2.2,0,3.9-1.8,3.9-4c0-2.2-1.8-4-3.9-4s-3.9,1.8-3.9,4S7.6,12.8,9.8,12.8z M9.8,6.2
		c1.4,0,2.5,1.2,2.5,2.6s-1.1,2.6-2.5,2.6s-2.5-1.2-2.5-2.6S8.4,6.2,9.8,6.2z"/>
	<path class="st0" d="M3.4,25.7c0.2,0,0.3-0.1,0.5-0.2l11.6-10.4l7.3,7.4c0.3,0.3,0.7,0.3,1,0c0.3-0.3,0.3-0.7,0-1l-3.4-3.5l6.5-7.3
		l8,7.4c0.3,0.3,0.7,0.2,1,0c0.3-0.3,0.2-0.8,0-1l-8.5-7.9c-0.1-0.1-0.3-0.2-0.5-0.2c-0.2,0-0.4,0.1-0.5,0.2L19.3,17L16,13.6
		c-0.3-0.3-0.7-0.3-1,0L2.9,24.4c-0.3,0.3-0.3,0.7-0.1,1C3,25.6,3.2,25.7,3.4,25.7z"/>
</g>
<g>
	<path class="st1" d="M44.7,5.5c0.2-0.1,0.4-0.1,0.6,0c0.2,0.1,0.3,0.3,0.3,0.6v16.6c0,0.3-0.1,0.5-0.3,0.6c-0.2,0.1-0.4,0.1-0.6,0
		c-0.2-0.1-0.3-0.3-0.3-0.6V6C44.4,5.8,44.5,5.6,44.7,5.5z"/>
	<path class="st1" d="M53.6,23.2c-0.2,0.1-0.4,0.1-0.6,0c-0.2-0.1-0.3-0.3-0.3-0.6V6c0-0.2,0.1-0.3,0.2-0.5c0.2-0.1,0.3-0.2,0.5-0.1
		c0.2,0,0.3,0.1,0.4,0.3l4.1,7.3L62,5.7c0.1-0.2,0.2-0.2,0.4-0.3c0.2,0,0.4,0,0.5,0.1c0.2,0.1,0.2,0.3,0.2,0.5l0,16.6
		c0,0.3-0.1,0.5-0.3,0.6c-0.2,0.1-0.4,0.1-0.6,0c-0.2-0.1-0.3-0.3-0.3-0.6l0-14.2l-3.5,6.2c-0.1,0.2-0.3,0.3-0.6,0.3
		c-0.2,0-0.4-0.1-0.6-0.3l-3.5-6.2v14.2C53.9,22.9,53.8,23.1,53.6,23.2z"/>
	<path class="st1" d="M72.4,14.8l-3,8c-0.1,0.2-0.2,0.4-0.5,0.4c-0.2,0-0.4,0-0.6-0.2s-0.2-0.4-0.1-0.6l6.1-16.6
		c0.1-0.3,0.3-0.4,0.6-0.4s0.5,0.1,0.6,0.4l6.1,16.6c0.1,0.2,0,0.5-0.1,0.6s-0.4,0.2-0.6,0.2c-0.2,0-0.4-0.2-0.5-0.4l-1.7-4.7
		L72.4,14.8z M74.9,7.9l-2.1,5.7l5.2,2.8L74.9,7.9z"/>
	<path class="st1" d="M92.9,14.6c-0.1-0.2-0.1-0.4,0-0.6c0.1-0.2,0.3-0.3,0.6-0.3h7.2c0.2,0,0.3,0.1,0.4,0.2
		c0.1,0.1,0.2,0.3,0.2,0.4c0,2.5-0.8,4.6-2.3,6.3c-1.5,1.7-3.4,2.6-5.5,2.6c-2.2,0-4-0.9-5.6-2.6c-1.5-1.7-2.3-3.8-2.3-6.3
		c0-2.5,0.8-4.6,2.3-6.3c1.5-1.7,3.4-2.6,5.6-2.6c1.4,0,2.8,0.4,4,1.1c1.3,0.8,2.2,1.7,2.7,2.7c0.1,0.2,0.1,0.5,0,0.7
		c-0.1,0.2-0.3,0.3-0.5,0.3S99.2,10,99,9.8c-0.4-0.9-1.2-1.6-2.2-2.2s-2.2-0.9-3.4-0.9c-1.8,0-3.4,0.8-4.7,2.3s-1.9,3.3-1.9,5.4
		s0.6,3.9,1.9,5.4s2.9,2.3,4.7,2.3c1.8,0,3.3-0.7,4.6-2.2c1.3-1.4,1.9-3.1,1.9-4.9h-6.6C93.2,15,93,14.8,92.9,14.6z"/>
	<path class="st1" d="M107.5,5.5c0.2-0.1,0.4-0.1,0.6,0c0.2,0.1,0.3,0.3,0.3,0.6v16.6c0,0.3-0.1,0.5-0.3,0.6c-0.2,0.1-0.4,0.1-0.6,0
		s-0.3-0.3-0.3-0.6V6C107.2,5.8,107.3,5.6,107.5,5.5z"/>
	<path class="st1" d="M116.4,23.2c-0.2,0.1-0.4,0.1-0.6,0c-0.2-0.1-0.3-0.3-0.3-0.6V6c0-0.3,0.1-0.5,0.4-0.6c0.3-0.1,0.5,0,0.7,0.2
		l10.7,15l0-14.6c0-0.3,0.1-0.4,0.3-0.6c0.2-0.1,0.4-0.1,0.6,0s0.3,0.3,0.3,0.6l0,16.6c0,0.3-0.1,0.5-0.4,0.6
		c-0.3,0.1-0.5,0-0.7-0.2L116.7,8v14.6C116.7,22.9,116.6,23.1,116.4,23.2z"/>
	<path class="st1" d="M140.3,5.7c0.1,0.2,0.1,0.4,0,0.6c-0.1,0.2-0.3,0.3-0.6,0.3h-2.8v7h2.8c0.3,0,0.5,0.1,0.6,0.3
		c0.1,0.2,0.1,0.4,0,0.6c-0.1,0.2-0.3,0.3-0.6,0.3h-2.8v7h2.8c0.3,0,0.5,0.1,0.6,0.3c0.1,0.2,0.1,0.4,0,0.6
		c-0.1,0.2-0.3,0.3-0.6,0.3h-3.5c-0.2,0-0.3-0.1-0.4-0.2s-0.2-0.3-0.2-0.4v-8.3V6c0-0.2,0.1-0.3,0.2-0.4c0.1-0.1,0.3-0.2,0.4-0.2
		h3.5C140,5.4,140.1,5.5,140.3,5.7z"/>
	<path class="st1" d="M152.6,5.4c0.3,0,0.5,0.1,0.6,0.3c0.1,0.2,0.1,0.4,0,0.6c-0.1,0.2-0.3,0.3-0.6,0.3h-3.2v15.9
		c0,0.3-0.1,0.5-0.3,0.6s-0.4,0.1-0.6,0c-0.2-0.1-0.3-0.3-0.3-0.6V6.7h-3.3c-0.3,0-0.5-0.1-0.6-0.3c-0.1-0.2-0.1-0.4,0-0.6
		c0.1-0.2,0.3-0.3,0.6-0.3h3.9H152.6z"/>
	<path class="st1" d="M162.9,5.7c0.1,0.2,0.1,0.4,0,0.6c-0.1,0.2-0.3,0.3-0.6,0.3h-2.8v7h2.8c0.3,0,0.5,0.1,0.6,0.3
		c0.1,0.2,0.1,0.4,0,0.6c-0.1,0.2-0.3,0.3-0.6,0.3h-2.8v7h2.8c0.3,0,0.5,0.1,0.6,0.3c0.1,0.2,0.1,0.4,0,0.6
		c-0.1,0.2-0.3,0.3-0.6,0.3h-3.5c-0.2,0-0.3-0.1-0.4-0.2s-0.2-0.3-0.2-0.4v-8.3V6c0-0.2,0.1-0.3,0.2-0.4c0.1-0.1,0.3-0.2,0.4-0.2
		h3.5C162.6,5.4,162.8,5.5,162.9,5.7z"/>
</g>
</svg>
